<!-- Licensed to the Apache Software Foundation (ASF) under one or more
contributor license agreements.  See the NOTICE file distributed with
this work for additional information regarding copyright ownership.
The ASF licenses this file to You under the Apache License, Version 2.0
(the "License"); you may not use this file except in compliance with
the License.  You may obtain a copy of the License at

     http://www.apache.org/licenses/LICENSE-2.0

Unless required by applicable law or agreed to in writing, software
distributed under the License is distributed on an "AS IS" BASIS,
WITHOUT WARRANTIES OR CONDITIONS OF ANY KIND, either express or implied.
See the License for the specific language governing permissions and
limitations under the License. -->
<svg t="1684376918107" class="icon" viewBox="0 0 1024 1024" version="1.1" xmlns="http://www.w3.org/2000/svg" p-id="7954">
  <path d="M243.921917 780.038686l357.445972 0L601.367889 422.592714 243.921917 422.592714 243.921917 780.038686zM288.679283 467.350081l268.036639 0 0 268.035616L288.679283 735.385696 288.679283 467.350081zM779.993149 65.25112 243.921917 65.25112c-98.640578 0-178.6314 79.990822-178.6314 178.716334L65.290517 780.038686c0 98.640578 79.990822 178.710194 178.6314 178.710194l536.071232 0c98.725512 0 178.716334-80.069617 178.716334-178.710194L958.709483 243.967454C958.709483 145.242965 878.717637 65.25112 779.993149 65.25112zM869.404528 735.385696c0 73.992201-60.07319 133.972271-134.084834 133.972271L288.679283 869.357967c-74.096579 0-134.063345-59.98007-134.063345-133.972271L154.615938 288.61328c0-73.984015 59.966767-134.057205 134.063345-134.057205l446.639386 0c74.011644 0 134.084834 60.07319 134.084834 134.057205L869.403504 735.385696zM511.957533 243.967454l268.035616 0 0 89.319282 0 268.035616-89.326445 0-44.645826 0 0-44.673455 89.298815 0L735.319693 288.61328l-268.014126 0 0 89.326445-44.652989 0 0-133.971247L511.957533 243.968477z" p-id="7955"></path>
</svg>
