<!-- Licensed to the Apache Software Foundation (ASF) under one or more
contributor license agreements.  See the NOTICE file distributed with
this work for additional information regarding copyright ownership.
The ASF licenses this file to You under the Apache License, Version 2.0
(the "License"); you may not use this file except in compliance with
the License.  You may obtain a copy of the License at

     http://www.apache.org/licenses/LICENSE-2.0

Unless required by applicable law or agreed to in writing, software
distributed under the License is distributed on an "AS IS" BASIS,
WITHOUT WARRANTIES OR CONDITIONS OF ANY KIND, either express or implied.
See the License for the specific language governing permissions and
limitations under the License. -->

<svg class="icon" viewBox="0 0 1024 1024" version="1.1" xmlns="http://www.w3.org/2000/svg">
  <path d="M512 992c-83.2 0-166.4-19.2-243.2-64-89.6-51.2-160-134.4-204.8-230.4C25.6 601.6 19.2 486.4 51.2 390.4c25.6-102.4 89.6-192 172.8-256C307.2 70.4 409.6 38.4 518.4 38.4c19.2 0 32 12.8 32 32s-19.2 25.6-38.4 25.6c-89.6 0-179.2 32-256 83.2S128 313.6 108.8 403.2s-12.8 185.6 19.2 268.8c32 83.2 96 153.6 179.2 198.4 76.8 44.8 172.8 64 262.4 51.2 89.6-12.8 172.8-51.2 236.8-115.2s108.8-147.2 115.2-236.8c12.8-89.6-6.4-185.6-51.2-262.4-6.4-12.8-6.4-32 12.8-44.8 12.8-12.8 38.4-6.4 44.8 12.8 51.2 89.6 76.8 198.4 57.6 300.8-12.8 102.4-64 204.8-134.4 275.2-76.8 76.8-172.8 121.6-275.2 134.4-19.2 6.4-44.8 6.4-64 6.4z" p-id="8538"></path><path d="M512 480c-19.2 0-32-12.8-32-32V64c0-19.2 12.8-32 32-32s32 12.8 32 32v384c0 19.2-12.8 32-32 32z" p-id="8539"></path><path d="M512 608c-12.8 0-25.6 0-38.4-6.4-12.8-6.4-19.2-12.8-32-19.2-6.4-12.8-12.8-19.2-19.2-32-6.4-12.8-6.4-25.6-6.4-38.4 0-25.6 12.8-51.2 25.6-70.4 38.4-38.4 102.4-38.4 134.4 0 19.2 19.2 32 44.8 32 70.4 0 25.6-12.8 51.2-25.6 70.4-19.2 12.8-44.8 25.6-70.4 25.6z m0-128c-6.4 0-19.2 6.4-25.6 6.4 0 6.4-6.4 19.2-6.4 25.6v12.8c0 6.4 6.4 6.4 6.4 12.8 0 0 6.4 6.4 12.8 6.4 12.8 6.4 25.6 0 32-6.4 6.4-6.4 12.8-19.2 12.8-25.6 0-6.4-6.4-19.2-6.4-25.6-6.4 0-19.2-6.4-25.6-6.4z" p-id="8540"></path><path d="M512 800c-51.2 0-102.4-12.8-147.2-38.4-57.6-32-96-83.2-121.6-140.8-19.2-57.6-25.6-121.6-6.4-185.6 19.2-64 51.2-115.2 102.4-153.6C384 243.2 448 224 512 224c19.2 0 32 12.8 32 32s-12.8 32-32 32c-51.2 0-96 19.2-134.4 44.8-38.4 32-70.4 76.8-83.2 121.6s-6.4 96 12.8 140.8c19.2 44.8 51.2 83.2 96 108.8 44.8 25.6 89.6 32 140.8 25.6 51.2-6.4 96-32 128-64s57.6-83.2 64-128c6.4-51.2-6.4-96-25.6-140.8-12.8-12.8-6.4-32 6.4-38.4 12.8-6.4 32-6.4 44.8 12.8 32 57.6 44.8 121.6 38.4 179.2-6.4 64-38.4 121.6-83.2 166.4-44.8 44.8-102.4 76.8-166.4 83.2H512z"></path>
</svg>
