<!-- Licensed to the Apache Software Foundation (ASF) under one or more
contributor license agreements.  See the NOTICE file distributed with
this work for additional information regarding copyright ownership.
The ASF licenses this file to You under the Apache License, Version 2.0
(the "License"); you may not use this file except in compliance with
the License.  You may obtain a copy of the License at

     http://www.apache.org/licenses/LICENSE-2.0

Unless required by applicable law or agreed to in writing, software
distributed under the License is distributed on an "AS IS" BASIS,
WITHOUT WARRANTIES OR CONDITIONS OF ANY KIND, either express or implied.
See the License for the specific language governing permissions and
limitations under the License. -->

<svg t="1666624449554" class="icon" viewBox="0 0 1024 1024" version="1.1" xmlns="http://www.w3.org/2000/svg" p-id="2649" width="48" height="48"><path d="M381.482667 673.877333a90.389333 90.389333 0 0 1 85.226666 60.245334H853.333333v64H465.28a90.389333 90.389333 0 0 1-167.573333 0H170.666667v-64h125.610666a90.389333 90.389333 0 0 1 85.205334-60.245334z m0 64a26.346667 26.346667 0 1 0 0 52.693334 26.346667 26.346667 0 0 0 0-52.693334z m261.034666-304.938666a90.389333 90.389333 0 0 1 85.205334 60.245333H853.333333v64h-127.04a90.389333 90.389333 0 0 1-167.573333 0H170.666667v-64h386.624a90.389333 90.389333 0 0 1 85.226666-60.245333z m0 64a26.346667 26.346667 0 1 0 0 52.693333 26.346667 26.346667 0 0 0 0-52.693333zM381.482667 192a90.389333 90.389333 0 0 1 85.226666 60.224H853.333333v64H465.28a90.389333 90.389333 0 0 1-167.573333 0H170.666667v-64h125.610666A90.389333 90.389333 0 0 1 381.482667 192z m0 64a26.346667 26.346667 0 1 0 0 52.693333 26.346667 26.346667 0 0 0 0-52.693333z" p-id="2650"></path></svg>