<!-- Licensed to the Apache Software Foundation (ASF) under one or more
contributor license agreements.  See the NOTICE file distributed with
this work for additional information regarding copyright ownership.
The ASF licenses this file to You under the Apache License, Version 2.0
(the "License"); you may not use this file except in compliance with
the License.  You may obtain a copy of the License at

     http://www.apache.org/licenses/LICENSE-2.0

Unless required by applicable law or agreed to in writing, software
distributed under the License is distributed on an "AS IS" BASIS,
WITHOUT WARRANTIES OR CONDITIONS OF ANY KIND, either express or implied.
See the License for the specific language governing permissions and
limitations under the License. -->
<svg t="1684390612367" class="icon" viewBox="0 0 1024 1024" version="1.1" xmlns="http://www.w3.org/2000/svg" p-id="12207">
  <path d="M202.66008 885.33784A10.66632 10.66632 0 0 0 213.3264 874.67152v-85.33056a42.66528 42.66528 0 0 0-42.66528-42.66528H85.33056a42.66528 42.66528 0 0 0-42.66528 42.66528v85.33056a10.66632 10.66632 0 0 0 10.66632 10.66632zM458.65176 885.33784a10.66632 10.66632 0 0 0 10.66632-10.66632v-298.65696a42.66528 42.66528 0 0 0-42.66528-42.665281H341.32224a42.66528 42.66528 0 0 0-42.66528 42.665281v298.65696a10.66632 10.66632 0 0 0 10.66632 10.66632zM714.643441 885.33784a10.66632 10.66632 0 0 0 10.66632-10.66632v-213.3264a42.66528 42.66528 0 0 0-42.66528-42.66528h-85.33056a42.66528 42.66528 0 0 0-42.66528 42.66528v213.3264a10.66632 10.66632 0 0 0 10.66632 10.66632zM970.635121 885.33784a10.66632 10.66632 0 0 0 10.66632-10.66632v-511.983361a42.66528 42.66528 0 0 0-42.66528-42.66528h-85.33056a42.66528 42.66528 0 0 0-42.66528 42.66528v511.983361a10.66632 10.66632 0 0 0 10.66632 10.66632z" p-id="12208"></path><path d="M149.32848 576.01456a85.33056 85.33056 0 0 0 85.33056-85.330561 84.51992 84.51992 0 0 0-4.266528-25.599168l135.120942-112.636339a83.410622 83.410622 0 0 0 104.273945-19.626029l106.6632 35.582844A85.33056 85.33056 0 0 0 746.642401 362.688159a83.79461 83.79461 0 0 0-9.85568-38.910735l140.240776-163.621349A85.074568 85.074568 0 1 0 831.972961 85.363839a83.709279 83.709279 0 0 0 3.967871 24.361875L688.190967 282.136111a82.429321 82.429321 0 0 0-91.346364 25.300511l-106.663201-35.540179A85.117234 85.117234 0 1 0 324.256128 302.956767L189.263182 415.763768A84.263928 84.263928 0 0 0 149.32848 405.353439a85.33056 85.33056 0 0 0 0 170.661121zM981.301441 938.66944H42.66528a43.347925 43.347925 0 0 0-42.66528 42.66528 42.66528 42.66528 0 0 0 42.66528 42.66528h938.636161a42.66528 42.66528 0 0 0 42.66528-42.66528 43.305259 43.305259 0 0 0-42.66528-42.66528z" p-id="12209"></path>
</svg>
