<!-- Licensed to the Apache Software Foundation (ASF) under one or more
contributor license agreements.  See the NOTICE file distributed with
this work for additional information regarding copyright ownership.
The ASF licenses this file to You under the Apache License, Version 2.0
(the "License"); you may not use this file except in compliance with
the License.  You may obtain a copy of the License at

     http://www.apache.org/licenses/LICENSE-2.0

Unless required by applicable law or agreed to in writing, software
distributed under the License is distributed on an "AS IS" BASIS,
WITHOUT WARRANTIES OR CONDITIONS OF ANY KIND, either express or implied.
See the License for the specific language governing permissions and
limitations under the License. -->
<svg t="1664265269855" class="icon" viewBox="0 0 1024 1024" version="1.1" xmlns="http://www.w3.org/2000/svg" p-id="4109" width="48" height="48"><path d="M866.461538 39.384615H354.461538c-43.323077 0-78.769231 35.446154-78.76923 78.769231v39.384616h472.615384c43.323077 0 78.769231 35.446154 78.769231 78.76923v551.384616h39.384615c43.323077 0 78.769231-35.446154 78.769231-78.769231V118.153846c0-43.323077-35.446154-78.769231-78.769231-78.769231z m-118.153846 275.692308c0-43.323077-35.446154-78.769231-78.76923-78.769231H157.538462c-43.323077 0-78.769231 35.446154-78.769231 78.769231v590.769231c0 43.323077 35.446154 78.769231 78.769231 78.769231h512c43.323077 0 78.769231-35.446154 78.76923-78.769231V315.076923z m-354.461538 137.846154c0 11.815385-7.876923 19.692308-19.692308 19.692308h-157.538461c-11.815385 0-19.692308-7.876923-19.692308-19.692308v-39.384615c0-11.815385 7.876923-19.692308 19.692308-19.692308h157.538461c11.815385 0 19.692308 7.876923 19.692308 19.692308v39.384615z m157.538461 315.076923c0 11.815385-7.876923 19.692308-19.692307 19.692308H216.615385c-11.815385 0-19.692308-7.876923-19.692308-19.692308v-39.384615c0-11.815385 7.876923-19.692308 19.692308-19.692308h315.076923c11.815385 0 19.692308 7.876923 19.692307 19.692308v39.384615z m78.769231-157.538462c0 11.815385-7.876923 19.692308-19.692308 19.692308H216.615385c-11.815385 0-19.692308-7.876923-19.692308-19.692308v-39.384615c0-11.815385 7.876923-19.692308 19.692308-19.692308h393.846153c11.815385 0 19.692308 7.876923 19.692308 19.692308v39.384615z" p-id="4110"></path></svg>