<!-- Licensed to the Apache Software Foundation (ASF) under one or more
contributor license agreements.  See the NOTICE file distributed with
this work for additional information regarding copyright ownership.
The ASF licenses this file to You under the Apache License, Version 2.0
(the "License"); you may not use this file except in compliance with
the License.  You may obtain a copy of the License at

     http://www.apache.org/licenses/LICENSE-2.0

Unless required by applicable law or agreed to in writing, software
distributed under the License is distributed on an "AS IS" BASIS,
WITHOUT WARRANTIES OR CONDITIONS OF ANY KIND, either express or implied.
See the License for the specific language governing permissions and
limitations under the License. -->
<svg t="1680084361913" class="icon" viewBox="0 0 1024 1024" version="1.1" xmlns="http://www.w3.org/2000/svg" p-id="5147" width="48" height="48"><path d="M512 955.733333c-121.890133 0-227.584-43.8784-314.146133-130.440533C111.872 739.293867 68.266667 633.9072 68.266667 512c0-121.873067 43.588267-227.549867 129.536-314.112C284.450133 111.854933 390.126933 68.266667 512 68.266667c121.9072 0 227.293867 43.605333 313.2928 129.5872C911.854933 284.416 955.733333 390.109867 955.733333 512c0 121.924267-43.895467 227.328-130.474666 313.326933C739.328 911.837867 633.924267 955.733333 512 955.733333z m0-853.333333c-112.5376 0-210.1248 40.2432-290.065067 119.620267C142.6432 301.8752 102.4 399.4624 102.4 512c0 112.520533 40.226133 209.800533 119.586133 289.160533C301.909333 881.083733 399.496533 921.6 512 921.6c112.4864 0 209.7664-40.4992 289.1264-120.405333C881.1008 721.7664 921.6 624.4864 921.6 512c0-112.503467-40.516267-210.090667-120.439467-290.013867C721.800533 142.626133 624.520533 102.4 512 102.4z m85.333333 682.666667H426.666667a17.066667 17.066667 0 0 1-17.066667-17.066667v-153.6h-153.6a17.066667 17.066667 0 0 1-17.066667-17.066667V426.666667a17.066667 17.066667 0 0 1 17.066667-17.066667h153.6v-153.6a17.066667 17.066667 0 0 1 17.066667-17.066667h170.666666a17.066667 17.066667 0 0 1 17.066667 17.066667v153.6h153.6a17.066667 17.066667 0 0 1 17.066667 17.066667v170.666666a17.066667 17.066667 0 0 1-17.066667 17.066667h-153.6v153.6a17.066667 17.066667 0 0 1-17.066667 17.066667z m-153.6-34.133334h136.533334v-153.6a17.066667 17.066667 0 0 1 17.066666-17.066666h153.6v-136.533334h-153.6a17.066667 17.066667 0 0 1-17.066666-17.066666v-153.6h-136.533334v153.6a17.066667 17.066667 0 0 1-17.066666 17.066666h-153.6v136.533334h153.6a17.066667 17.066667 0 0 1 17.066666 17.066666v153.6z" p-id="5148"></path></svg>