<?xml version="1.0" standalone="no"?><!DOCTYPE svg PUBLIC "-//W3C//DTD SVG 1.1//EN" "http://www.w3.org/Graphics/SVG/1.1/DTD/svg11.dtd"><svg t="1744441494121" class="icon" viewBox="0 0 1198 1024" version="1.1" xmlns="http://www.w3.org/2000/svg" p-id="5280" xmlns:xlink="http://www.w3.org/1999/xlink" width="233.984375" height="200"><path d="M1168.248051 0H205.354279a30.123849 30.123849 0 0 0-30.123849 30.123849v431.494014a30.123849 30.123849 0 0 0 60.247698 0V60.247698h902.646074v903.504604H235.478128v-296.719913H332.868532a30.123849 30.123849 0 0 0 28.708028-20.996323l47.50531-149.56491 159.053923 343.155826A30.123849 30.123849 0 0 0 595.458124 857.023505h1.114582a30.123849 30.123849 0 0 0 27.111464-19.49013l142.892478-379.364693L822.230459 647.060277a30.123849 30.123849 0 0 0 28.858648 21.689171h192.310652a30.123849 30.123849 0 0 0 0-60.247698H873.591622l-74.66196-253.537375a30.123849 30.123849 0 0 0-57.084694-2.093607l-149.24861 396.24911-161.448769-348.367252a30.123849 30.123849 0 0 0-56.105669 3.554614l-64.239108 202.402141h-75.309622v-17.170594a30.123849 30.123849 0 0 0-60.247698 0v17.170594H30.123849a30.123849 30.123849 0 0 0 0 60.247698h145.106581v326.919072a30.123849 30.123849 0 0 0 30.123849 30.123849h962.893772a30.123849 30.123849 0 0 0 30.123849-30.123849V30.123849a30.123849 30.123849 0 0 0-30.123849-30.123849z" p-id="5281"></path></svg>