<!-- Licensed to the Apache Software Foundation (ASF) under one or more
contributor license agreements.  See the NOTICE file distributed with
this work for additional information regarding copyright ownership.
The ASF licenses this file to You under the Apache License, Version 2.0
(the "License"); you may not use this file except in compliance with
the License.  You may obtain a copy of the License at

     http://www.apache.org/licenses/LICENSE-2.0

Unless required by applicable law or agreed to in writing, software
distributed under the License is distributed on an "AS IS" BASIS,
WITHOUT WARRANTIES OR CONDITIONS OF ANY KIND, either express or implied.
See the License for the specific language governing permissions and
limitations under the License. -->
<svg t="1758874892311" class="icon" viewBox="0 0 1024 1024" version="1.1" xmlns="http://www.w3.org/2000/svg">
  <path d="M731.428571 341.333333h73.142858a73.142857 73.142857 0 0 1 73.142857 73.142857v414.476191a73.142857 73.142857 0 0 1-73.142857 73.142857H219.428571a73.142857 73.142857 0 0 1-73.142857-73.142857V414.47619a73.142857 73.142857 0 0 1 73.142857-73.142857h73.142858v73.142857H219.428571v414.476191h585.142858V414.47619h-73.142858v-73.142857z m-176.90819-242.590476l0.048762 397.092572 84.577524-84.601905 51.687619 51.712-172.373334 172.397714-172.397714-172.373333 51.712-51.736381 83.626667 83.626666V98.742857h73.142857z" p-id="4697"></path>
</svg>