<!-- Licensed to the Apache Software Foundation (ASF) under one or more
contributor license agreements.  See the NOTICE file distributed with
this work for additional information regarding copyright ownership.
The ASF licenses this file to You under the Apache License, Version 2.0
(the "License"); you may not use this file except in compliance with
the License.  You may obtain a copy of the License at

     http://www.apache.org/licenses/LICENSE-2.0

Unless required by applicable law or agreed to in writing, software
distributed under the License is distributed on an "AS IS" BASIS,
WITHOUT WARRANTIES OR CONDITIONS OF ANY KIND, either express or implied.
See the License for the specific language governing permissions and
limitations under the License. -->
<svg t="1680083488716" class="icon" viewBox="0 0 1024 1024" version="1.1" xmlns="http://www.w3.org/2000/svg" p-id="1096" width="48" height="48"><path d="M853.333333 512a42.666667 42.666667 0 0 0-42.666666-42.666667h-323.84l98.133333-97.706666a42.666667 42.666667 0 1 0-60.586667-60.586667l-170.666666 170.666667a42.666667 42.666667 0 0 0-8.96 14.08 42.666667 42.666667 0 0 0 0 32.426666 42.666667 42.666667 0 0 0 8.96 14.08l170.666666 170.666667a42.666667 42.666667 0 0 0 60.586667 0 42.666667 42.666667 0 0 0 0-60.586667L486.826667 554.666667H810.666667a42.666667 42.666667 0 0 0 42.666666-42.666667zM725.333333 85.333333H298.666667a128 128 0 0 0-128 128v597.333334a128 128 0 0 0 128 128h426.666666a128 128 0 0 0 128-128v-128a42.666667 42.666667 0 0 0-85.333333 0v128a42.666667 42.666667 0 0 1-42.666667 42.666666H298.666667a42.666667 42.666667 0 0 1-42.666667-42.666666V213.333333a42.666667 42.666667 0 0 1 42.666667-42.666666h426.666666a42.666667 42.666667 0 0 1 42.666667 42.666666v128a42.666667 42.666667 0 0 0 85.333333 0V213.333333a128 128 0 0 0-128-128z" p-id="1097"></path></svg>