<!-- Licensed to the Apache Software Foundation (ASF) under one or more
contributor license agreements.  See the NOTICE file distributed with
this work for additional information regarding copyright ownership.
The ASF licenses this file to You under the Apache License, Version 2.0
(the "License"); you may not use this file except in compliance with
the License.  You may obtain a copy of the License at

     http://www.apache.org/licenses/LICENSE-2.0

Unless required by applicable law or agreed to in writing, software
distributed under the License is distributed on an "AS IS" BASIS,
WITHOUT WARRANTIES OR CONDITIONS OF ANY KIND, either express or implied.
See the License for the specific language governing permissions and
limitations under the License. -->
<svg t="1680104481890" class="icon" viewBox="0 0 1024 1024" version="1.1" xmlns="http://www.w3.org/2000/svg" p-id="7991" width="16" height="16"><path d="M918.4 489.6l-160-160c-12.8-12.8-32-12.8-44.8 0-12.8 12.8-12.8 32 0 44.8l105.6 105.6L512 480c-19.2 0-32 12.8-32 32s12.8 32 32 32l307.2 0-105.6 105.6c-12.8 12.8-12.8 32 0 44.8 6.4 6.4 12.8 9.6 22.4 9.6 9.6 0 16-3.2 22.4-9.6l160-163.2c0 0 0-3.2 3.2-3.2C931.2 518.4 931.2 499.2 918.4 489.6zM832 736c-19.2 0-32 12.8-32 32l0 64c0 19.2-12.8 32-32 32L224 864c-19.2 0-32-12.8-32-32L192 192c0-19.2 12.8-32 32-32l544 0c19.2 0 32 12.8 32 32l0 64c0 19.2 12.8 32 32 32s32-12.8 32-32L864 192c0-54.4-41.6-96-96-96L224 96C169.6 96 128 137.6 128 192l0 640c0 54.4 41.6 96 96 96l544 0c54.4 0 96-41.6 96-96l0-64C864 748.8 851.2 736 832 736z" p-id="7992"></path></svg>