<!-- Licensed to the Apache Software Foundation (ASF) under one or more
contributor license agreements.  See the NOTICE file distributed with
this work for additional information regarding copyright ownership.
The ASF licenses this file to You under the Apache License, Version 2.0
(the "License"); you may not use this file except in compliance with
the License.  You may obtain a copy of the License at

     http://www.apache.org/licenses/LICENSE-2.0

Unless required by applicable law or agreed to in writing, software
distributed under the License is distributed on an "AS IS" BASIS,
WITHOUT WARRANTIES OR CONDITIONS OF ANY KIND, either express or implied.
See the License for the specific language governing permissions and
limitations under the License. -->
<svg t="1670381479745" class="icon" viewBox="0 0 1280 1024" version="1.1" xmlns="http://www.w3.org/2000/svg" p-id="2930"><path d="M577.450256 639.9892c0-104.678234 33.919428-206.436516 96.018379-289.895108 10.339826-13.879766 8.89985-33.079442-4.299927-44.279253l-49.379167-41.959292c-13.999764-11.899799-35.659398-10.179828-46.759211 4.459925C492.171695 374.833675 447.99244 505.551469 447.99244 639.9892c0 134.457731 44.179254 265.175525 125.03789 371.673728 11.119812 14.639753 32.759447 16.359724 46.759211 4.459925l49.379167-41.979292c13.179778-11.219811 14.619753-30.399487 4.299927-44.279252-62.118952-83.418592-96.01838-185.196875-96.018379-289.875109zM447.99244 31.99946c0-17.679702-14.319758-31.99946-31.99946-31.99946h-95.99838C205.116539 0 111.99811 93.118429 111.99811 207.99649v127.99784H31.99946c-17.679702 0-31.99946 14.319758-31.99946 31.99946v95.99838c0 17.679702 14.319758 31.99946 31.99946 31.99946h79.99865v255.99568c0 26.399555-21.599636 47.99919-47.99919 47.99919H31.99946c-17.679702 0-31.99946 14.319758-31.99946 31.99946v95.99838c0 17.679702 14.319758 31.99946 31.99946 31.99946h31.99946c114.878061 0 207.99649-93.118429 207.99649-207.99649V495.99163h79.99865c17.679702 0 31.99946-14.319758 31.99946-31.99946v-95.99838c0-17.679702-14.319758-31.99946-31.99946-31.99946h-79.99865v-127.99784c0-26.399555 21.599636-47.99919 47.99919-47.99919h95.99838c17.679702 0 31.99946-14.319758 31.99946-31.99946V31.99946z m706.94807 236.316012c-11.119812-14.639753-32.759447-16.359724-46.759211-4.459925l-49.379166 41.959292c-13.179778 11.219811-14.619753 30.399487-4.299928 44.279253 62.098952 83.418592 96.01838 185.216874 96.01838 289.895108 0 104.678234-33.919428 206.456516-96.01838 289.895108-10.339826 13.879766-8.89985 33.079442 4.299928 44.279253l49.379166 41.979292c13.999764 11.899799 35.659398 10.179828 46.759211-4.459925C1235.799146 905.124726 1279.9784 774.426932 1279.9784 639.9892c0-134.457731-44.179254-265.175525-125.03789-371.673728z m-108.338171 463.792174L954.483893 639.9892l92.118446-92.118445c12.499789-12.499789 12.499789-32.759447 0-45.259237l-45.239237-45.239236c-12.499789-12.499789-32.759447-12.499789-45.259236 0L863.98542 549.490727l-92.118445-92.118445c-12.499789-12.499789-32.759447-12.499789-45.259237 0l-45.239236 45.239236c-12.499789 12.499789-12.499789 32.759447 0 45.259237L773.486947 639.9892l-92.118445 92.118446c-12.499789 12.499789-12.499789 32.759447 0 45.259236l45.239236 45.239237c12.499789 12.499789 32.759447 12.499789 45.259237 0L863.98542 730.487673l92.118446 92.118446c12.499789 12.499789 32.759447 12.499789 45.259236 0l45.239237-45.239237c12.499789-12.499789 12.499789-32.759447 0-45.259236z" p-id="2931"></path></svg>