<!-- Licensed to the Apache Software Foundation (ASF) under one or more
contributor license agreements.  See the NOTICE file distributed with
this work for additional information regarding copyright ownership.
The ASF licenses this file to You under the Apache License, Version 2.0
(the "License"); you may not use this file except in compliance with
the License.  You may obtain a copy of the License at

     http://www.apache.org/licenses/LICENSE-2.0

Unless required by applicable law or agreed to in writing, software
distributed under the License is distributed on an "AS IS" BASIS,
WITHOUT WARRANTIES OR CONDITIONS OF ANY KIND, either express or implied.
See the License for the specific language governing permissions and
limitations under the License. -->
<svg version="1.0" xmlns="http://www.w3.org/2000/svg" viewBox="0 0 400.000000 400.000000"
 preserveAspectRatio="xMidYMid meet">

<g transform="translate(0.000000,400.000000) scale(0.100000,-0.100000)"
fill="#000000" stroke="none">
<path d="M1737 3725 c-379 -61 -696 -224 -968 -495 -249 -248 -403 -533 -481
-890 -20 -93 -22 -133 -22 -340 0 -207 2 -247 22 -339 48 -217 123 -407 231
-581 253 -406 658 -688 1141 -791 91 -20 135 -23 330 -24 172 0 246 4 315 17
361 69 669 231 926 487 271 272 438 604 494 983 23 154 16 448 -15 593 -147
694 -668 1214 -1366 1365 -130 29 -472 37 -607 15z m461 -131 c24 -3 52 -14
63 -25 23 -23 25 -76 3 -100 -15 -17 -15 -19 0 -34 25 -26 20 -82 -10 -112
-25 -25 -28 -25 -112 -19 -48 4 -88 8 -89 10 -1 1 4 60 12 131 8 72 15 137 15
145 0 17 14 17 118 4z m-359 -30 c30 -22 61 -89 61 -137 0 -48 -22 -102 -48
-116 -23 -12 -163 -43 -169 -38 -7 7 -53 280 -48 285 8 9 78 20 130 21 32 1
59 -5 74 -15z m564 -8 c7 -8 22 -44 31 -80 l18 -66 62 48 c48 38 66 47 85 43
23 -6 18 -12 -58 -71 -76 -61 -83 -69 -98 -122 -12 -43 -21 -58 -34 -58 -28 0
-30 14 -10 73 l19 56 -29 93 c-16 51 -29 94 -29 96 0 8 31 0 43 -12z m-858
-45 c0 -8 -30 -27 -69 -43 -38 -15 -71 -30 -74 -32 -4 -4 17 -76 22 -76 1 0
31 11 66 25 76 30 90 31 90 7 0 -13 -19 -24 -70 -42 -61 -21 -69 -27 -64 -45
15 -46 24 -65 32 -65 5 0 42 14 82 30 57 23 75 27 82 18 4 -7 8 -16 8 -19 0
-7 -180 -79 -197 -79 -6 0 -28 44 -49 98 -20 53 -43 112 -51 131 -7 19 -11 36
-9 38 10 11 173 71 186 70 8 -1 15 -9 15 -16z m-257 -157 c26 -29 28 -61 6
-92 -12 -17 -12 -22 -2 -22 7 0 42 -13 77 -29 62 -28 63 -29 41 -44 -21 -15
-26 -14 -59 2 -20 10 -53 24 -73 30 -37 12 -37 13 -96 -25 -2 -1 13 -27 32
-58 34 -52 35 -56 17 -65 -17 -10 -27 2 -92 101 -39 62 -74 119 -76 128 -2 9
14 26 44 44 119 73 138 76 181 30z m-292 -145 c3 -6 -19 -37 -52 -70 l-58 -59
29 -30 29 -30 56 55 c48 47 59 54 69 42 10 -12 2 -24 -44 -68 l-56 -52 32 -33
32 -33 64 59 c52 47 68 57 78 47 11 -10 -1 -27 -66 -92 l-80 -80 -99 105 c-55
58 -100 108 -100 111 0 10 139 139 150 139 5 0 12 -5 16 -11z m1197 -44 c494
-74 896 -467 982 -959 19 -113 19 -299 0 -410 -73 -416 -377 -773 -776 -910
-142 -48 -213 -59 -384 -59 -175 -1 -241 10 -400 65 -383 131 -680 481 -761
893 -22 115 -20 335 5 450 79 372 314 669 656 831 214 102 441 135 678 99z
m-1319 -258 c81 -91 95 -110 86 -126 -9 -18 -14 -18 -122 16 -62 19 -117 38
-123 41 -10 6 17 -27 109 -133 41 -46 48 -60 39 -73 -13 -20 0 -23 -160 28
-89 28 -133 47 -133 56 0 28 27 25 134 -15 73 -26 103 -34 94 -23 -7 9 -43 50
-80 91 -55 61 -65 78 -57 93 13 25 30 23 147 -15 l103 -33 -82 82 c-67 67 -80
85 -74 103 4 12 10 21 14 19 4 -2 51 -51 105 -111z m2502 -151 c38 -38 44 -77
19 -126 -19 -37 -43 -50 -95 -50 -61 0 -100 41 -100 105 0 40 5 52 31 76 46
42 99 41 145 -5z m-2677 -171 c16 -8 41 -29 56 -47 24 -29 27 -38 23 -91 -4
-54 -8 -63 -41 -93 -32 -30 -44 -34 -90 -34 -126 0 -200 102 -150 207 9 20 30
44 47 54 38 23 115 25 155 4z m-145 -306 c35 -16 50 -59 42 -124 l-6 -54 32
-5 c18 -3 44 -7 58 -8 19 -2 24 -8 22 -23 -2 -11 -5 -21 -6 -22 -5 -6 -272 30
-280 37 -5 5 -4 42 3 87 9 63 16 82 37 101 28 24 60 28 98 11z m2717 -590 c14
-7 18 -16 14 -27 -4 -9 -20 -52 -36 -95 l-29 -78 33 -13 c77 -32 72 -34 105
51 29 75 55 102 67 70 3 -7 -7 -48 -24 -90 l-29 -76 55 -21 c30 -11 58 -18 62
-15 5 2 23 45 41 95 31 87 41 99 68 82 10 -7 2 -36 -32 -126 -25 -65 -47 -120
-49 -123 -3 -2 -82 26 -177 62 -95 36 -175 65 -177 65 -9 0 1 33 39 137 24 62
44 113 46 113 2 0 12 -5 23 -11z m34 -411 c80 -57 145 -106 145 -109 0 -3 -6
-14 -14 -24 -13 -18 -17 -16 -79 28 -36 26 -69 47 -74 47 -10 0 -113 -145
-113 -158 0 -7 61 -53 122 -93 14 -9 -11 -52 -26 -46 -10 4 -288 198 -304 212
-6 5 18 45 26 45 5 0 36 -21 71 -46 34 -25 64 -44 65 -42 1 2 25 35 52 73 28
39 53 75 57 81 4 7 -18 29 -58 55 -35 24 -65 49 -65 55 0 16 23 35 38 29 7 -2
78 -51 157 -107z m-2350 -142 c35 -15 65 -59 65 -96 0 -54 -57 -110 -112 -110
-13 0 -37 9 -55 20 -69 41 -63 154 9 185 42 18 51 18 93 1z m2003 -75 c8 -5
12 -17 10 -27 -3 -14 -11 -18 -33 -17 -82 7 -145 -48 -145 -126 0 -89 73 -161
162 -161 43 0 54 4 84 34 27 27 34 42 34 74 0 32 4 41 22 45 29 8 38 1 38 -31
-1 -38 -32 -102 -66 -133 -75 -69 -196 -57 -276 28 -27 28 -58 99 -58 132 0
65 56 152 115 177 34 15 94 18 113 5z m-247 -340 c79 -74 145 -138 147 -142 2
-4 -7 -13 -19 -19 -19 -11 -26 -7 -65 31 l-43 42 -68 -31 -68 -32 -3 -64 c-2
-55 -6 -66 -23 -71 -11 -4 -23 -5 -25 -2 -3 2 -9 94 -14 203 -8 180 -7 200 8
212 9 7 19 11 23 10 4 -2 71 -63 150 -137z m-321 34 c58 -30 78 -120 40 -182
-19 -31 -48 -44 -151 -67 l-26 -6 14 -60 c15 -68 12 -80 -20 -80 -20 0 -24 12
-56 173 -19 94 -36 179 -38 188 -4 12 11 19 64 31 90 20 138 21 173 3z m-334
-207 c38 -105 71 -195 72 -200 2 -4 -10 -8 -26 -8 -28 0 -32 5 -49 58 l-20 57
-79 3 -79 3 -27 -54 c-24 -49 -29 -54 -53 -50 -14 3 -25 9 -23 13 2 3 41 88
87 188 112 243 106 244 197 -10z"/>
<path d="M2120 3537 c0 -14 -2 -32 -6 -40 -4 -11 6 -16 43 -20 54 -6 83 5 83
32 0 27 -24 43 -75 49 -43 4 -45 3 -45 -21z"/>
<path d="M2105 3399 c-4 -22 -5 -42 -2 -45 9 -10 77 -16 101 -10 52 13 44 70
-12 86 -68 19 -79 14 -87 -31z"/>
<path d="M1697 3533 c-13 -3 -17 -11 -14 -26 3 -12 11 -58 18 -102 7 -44 14
-81 15 -83 7 -10 96 13 113 29 39 36 21 165 -24 183 -18 7 -80 6 -108 -1z"/>
<path d="M1156 3310 l-47 -30 22 -33 c12 -17 24 -34 25 -36 6 -7 94 50 103 67
5 10 5 27 0 40 -12 31 -45 28 -103 -8z"/>
<path d="M1060 2137 c-20 -10 -25 -20 -25 -52 0 -37 4 -42 53 -75 79 -52 68
-97 -21 -88 -23 2 -32 -1 -32 -12 0 -11 14 -16 57 -18 48 -2 60 0 77 19 40 43
27 78 -46 125 -71 45 -70 68 5 72 35 2 52 7 52 16 0 26 -78 34 -120 13z"/>
<path d="M1230 2020 c0 -123 1 -130 20 -130 17 0 20 7 20 43 l1 42 20 -25 c12
-14 27 -33 34 -43 8 -11 22 -17 35 -15 21 3 20 4 -9 43 -38 50 -38 61 0 105
29 34 29 35 8 38 -12 2 -26 -4 -34 -15 -7 -10 -22 -29 -34 -43 l-20 -25 -1 78
c0 70 -2 77 -20 77 -19 0 -20 -7 -20 -130z"/>
<path d="M2030 1976 c0 -130 1 -136 20 -136 20 0 20 5 18 132 -3 117 -5 133
-20 136 -16 3 -18 -8 -18 -132z"/>
<path d="M2133 2103 c-10 -3 -13 -40 -13 -134 0 -121 1 -129 19 -129 16 0 20
8 23 43 l3 42 30 -42 c20 -28 38 -42 53 -43 12 0 22 3 22 6 0 3 -16 26 -35 51
l-35 46 35 43 c40 48 42 54 18 54 -10 0 -35 -19 -55 -42 l-37 -43 -1 78 c0 75
-2 81 -27 70z"/>
<path d="M2310 2090 c0 -13 7 -20 20 -20 13 0 20 7 20 20 0 13 -7 20 -20 20
-13 0 -20 -7 -20 -20z"/>
<path d="M1410 2073 c0 -5 7 -30 15 -58 9 -27 20 -67 26 -87 5 -22 16 -38 24
-38 8 0 15 -4 15 -8 0 -17 -25 -32 -52 -32 -18 0 -28 -5 -28 -15 0 -22 72 -20
92 3 9 9 28 60 42 112 15 52 29 103 32 113 5 15 1 18 -17 15 -17 -2 -25 -12
-32 -38 -23 -94 -29 -110 -36 -106 -5 3 -11 20 -15 38 -17 85 -27 108 -46 108
-11 0 -20 -3 -20 -7z"/>
<path d="M1766 2031 c-3 -4 -8 -35 -12 -67 -8 -75 -19 -96 -28 -58 -25 105
-26 105 -53 102 -23 -3 -29 -10 -41 -58 -15 -63 -32 -88 -32 -48 0 14 -3 40
-7 59 -5 28 -7 30 -14 14 -13 -35 -10 -112 6 -125 29 -24 49 -7 67 55 9 33 17
62 18 65 1 3 11 -24 23 -60 19 -57 25 -65 47 -65 22 0 27 7 37 50 7 28 16 71
19 98 5 39 4 47 -9 47 -9 0 -18 -4 -21 -9z"/>
<path d="M1853 2033 c-7 -2 -13 -12 -13 -20 0 -12 7 -14 31 -9 34 7 69 -8 69
-28 0 -8 -17 -16 -42 -20 -53 -9 -68 -21 -68 -57 0 -43 21 -57 90 -56 l60 0 0
68 c0 103 -19 130 -90 128 -14 0 -31 -3 -37 -6z m87 -128 c0 -18 -7 -26 -24
-31 -30 -7 -46 1 -46 25 0 24 9 31 42 31 23 0 28 -4 28 -25z"/>
<path d="M2317 2033 c-4 -3 -7 -48 -7 -100 0 -86 1 -93 20 -93 19 0 20 7 20
100 0 77 -3 100 -13 100 -8 0 -17 -3 -20 -7z"/>
<path d="M2400 1938 c0 -91 1 -98 20 -98 17 0 19 8 22 78 l3 77 35 0 35 0 3
-77 c3 -70 5 -78 22 -78 18 0 20 7 20 78 0 106 -9 117 -94 118 l-66 1 0 -99z"/>
<path d="M2642 2025 l-33 -14 4 -73 c2 -40 -1 -84 -7 -97 -9 -20 -6 -27 17
-47 51 -43 147 -23 147 30 0 31 -16 43 -78 57 -64 15 -67 29 -7 29 58 0 90 28
81 71 -3 15 -1 31 4 34 39 24 -74 32 -128 10z m74 -29 c27 -20 7 -51 -32 -51
-23 0 -30 5 -32 24 -6 38 29 52 64 27z m-8 -151 c14 -4 22 -13 20 -23 -4 -22
-60 -28 -77 -9 -15 19 -3 49 18 43 9 -2 26 -7 39 -11z"/>
<path d="M549 2531 c-50 -50 -35 -120 33 -151 52 -24 80 -25 117 -5 72 37 56
137 -26 171 -52 22 -91 18 -124 -15z"/>
<path d="M471 2222 c-10 -19 -18 -99 -11 -105 3 -2 24 -7 47 -10 l42 -5 7 54
c4 37 2 59 -6 69 -17 21 -67 19 -79 -3z"/>
<path d="M2571 750 c0 -25 4 -66 7 -91 l7 -46 57 27 57 27 -65 64 -64 63 1
-44z"/>
<path d="M2247 708 c-25 -7 -36 -15 -33 -23 2 -7 10 -41 17 -74 l12 -62 31 6
c84 17 103 26 114 50 17 37 15 59 -9 89 -23 29 -61 33 -132 14z"/>
<path d="M1927 590 l-36 -75 60 -9 c33 -5 62 -7 64 -4 4 4 -4 28 -47 148 -4 9
-19 -14 -41 -60z"/>
</g>
</svg>
