<svg xmlns="http://www.w3.org/2000/svg" viewBox="0 0 174.76 38.55">
    <defs>
        <style>.cls-1{fill:#e6e6e6;stroke:gray;stroke-miterlimit:10;stroke-width:0.15px;}.cls-2{fill:#e0483a;}</style>
    </defs>
    <g id="Layer_2" data-name="Layer 2">
        <g id="Layer_1-2" data-name="Layer 1">
            <path class="cls-1" d="M19.1.14v8.4l-8.35,4.6,10,8.12L6.67,31.82l5.84-9.5L.17,12.94.1,12.83Z"/>
            <path class="cls-1"
                  d="M34.83,38.14a10.75,10.75,0,0,1-4.23-.8A11.83,11.83,0,0,1,26.89,35a12,12,0,0,1-2.57-3.57,9.18,9.18,0,0,1-.84-4.32,10.34,10.34,0,0,1,.91-4.38,11,11,0,0,1,2.5-3.46,11.55,11.55,0,0,1,3.64-2.29,11.92,11.92,0,0,1,4.3-.8,12.19,12.19,0,0,1,4.35.8,11.66,11.66,0,0,1,3.65,2.29,11.08,11.08,0,0,1,2.53,3.46,10.65,10.65,0,0,1,0,8.77,11.51,11.51,0,0,1-10.53,6.68ZM29.7,27.07a5.09,5.09,0,0,0,1.51,3.69,5.33,5.33,0,0,0,3.62,1.58,5.2,5.2,0,0,0,3.7-1.58,4.75,4.75,0,0,0,1.57-3.69,4.43,4.43,0,0,0-.43-1.93,5.93,5.93,0,0,0-1.16-1.65,5.42,5.42,0,0,0-1.69-1.14,4.92,4.92,0,0,0-2-.42,4.63,4.63,0,0,0-1.93.42,5.73,5.73,0,0,0-2.79,2.79A4.77,4.77,0,0,0,29.7,27.07Z"/>
            <path class="cls-1"
                  d="M61.8,16h6.47V38.14h-6V34.87H62.2a5.07,5.07,0,0,1-2.39,2.78,6.81,6.81,0,0,1-3.16.81q-7.74,0-7.74-9.11V16H55.4V29a4,4,0,0,0,.83,2.67,2.92,2.92,0,0,0,2.33,1,3,3,0,0,0,2.41-1A3.91,3.91,0,0,0,61.8,29Z"/>
            <path class="cls-1"
                  d="M70.9,15.85h5.7v3.59A10.54,10.54,0,0,1,77.71,17a4.39,4.39,0,0,1,1.39-1.39A5.51,5.51,0,0,1,80.94,15a15.44,15.44,0,0,1,2.45-.17l-1.8,6.68a4.44,4.44,0,0,0-3.36,1.05,5.23,5.23,0,0,0-1,3.55V38H70.9Z"/>
            <path class="cls-1"
                  d="M101.67,16.77v6.5a7,7,0,0,0-4.12-1.47,5,5,0,0,0-3.65,1.47,4.68,4.68,0,0,0-1.51,3.62,6.71,6.71,0,0,0,.38,2.31,6.24,6.24,0,0,0,1.06,1.88,4.54,4.54,0,0,0,1.63,1.25,5.4,5.4,0,0,0,2.2.43,5.64,5.64,0,0,0,4-1.54v6.29a6.65,6.65,0,0,1-2.16.77,13,13,0,0,1-6.69-.63,11,11,0,0,1-6-5.9,9.85,9.85,0,0,1-.75-4.05A12.44,12.44,0,0,1,87,23,10.6,10.6,0,0,1,93,17a12.37,12.37,0,0,1,4.54-.82A8.18,8.18,0,0,1,101.67,16.77Z"/>
            <path class="cls-1"
                  d="M121.92,38q-9.81.55-13.29-2.32-4.29-3.34-3.76-10.27,1.34-7.59,9.59-8.89A10.19,10.19,0,0,1,123.22,20a10.52,10.52,0,0,1,2.46,10.1h-8.37l-4.5-4.53h7.91a5.18,5.18,0,0,0-3.55-3.2,5.31,5.31,0,0,0-5.07,1.73,5.38,5.38,0,0,0-.67,5.62q1.45,2.74,5.77,2.67Z"/>
            <path class="cls-2" d="M137.46,14.14h4.85V22h7.79V26.9h-7.8v7.88h-4.85V26.89h-7.81V22h7.81Z"/>
            <path class="cls-2" d="M162.1,14.14H167V22h7.8V26.9H167v7.88H162.1V26.89h-7.8V22h7.8Z"/>
        </g>
    </g>
</svg>
