<!-- Licensed to the Apache Software Foundation (ASF) under one or more
contributor license agreements.  See the NOTICE file distributed with
this work for additional information regarding copyright ownership.
The ASF licenses this file to You under the Apache License, Version 2.0
(the "License"); you may not use this file except in compliance with
the License.  You may obtain a copy of the License at

     http://www.apache.org/licenses/LICENSE-2.0

Unless required by applicable law or agreed to in writing, software
distributed under the License is distributed on an "AS IS" BASIS,
WITHOUT WARRANTIES OR CONDITIONS OF ANY KIND, either express or implied.
See the License for the specific language governing permissions and
limitations under the License. -->
<svg t="1688979849484" class="icon" viewBox="0 0 1024 1024" version="1.1" xmlns="http://www.w3.org/2000/svg" p-id="2698"><path d="M384 469.333333H213.333333c-46.933333 0-85.333333-38.4-85.333333-85.333333V213.333333c0-46.933333 38.4-85.333333 85.333333-85.333333h170.666667c46.933333 0 85.333333 38.4 85.333333 85.333333v170.666667c0 46.933333-38.4 85.333333-85.333333 85.333333zM213.333333 213.333333v170.666667h170.666667V213.333333H213.333333z" p-id="2699"></path><path d="M170.666667 554.666667h256c25.6 0 42.666667 17.066667 42.666666 42.666666v256c0 25.6-17.066667 42.666667-42.666666 42.666667H170.666667c-25.6 0-42.666667-17.066667-42.666667-42.666667v-256c0-25.6 17.066667-42.666667 42.666667-42.666666z" p-id="2700"></path><path d="M384 896H213.333333c-46.933333 0-85.333333-38.4-85.333333-85.333333v-170.666667c0-46.933333 38.4-85.333333 85.333333-85.333333h170.666667c46.933333 0 85.333333 38.4 85.333333 85.333333v170.666667c0 46.933333-38.4 85.333333-85.333333 85.333333z m-170.666667-256v170.666667h170.666667v-170.666667H213.333333z" p-id="2701"></path><path d="M695.466667 115.2c17.066667-17.066667 42.666667-17.066667 59.733333 0l149.333333 149.333333c17.066667 17.066667 17.066667 42.666667 0 59.733334l-149.333333 149.333333c-17.066667 17.066667-42.666667 17.066667-59.733333 0l-149.333334-145.066667c-17.066667-17.066667-17.066667-42.666667 0-59.733333l149.333334-153.6z" p-id="2702"></path><path d="M810.666667 896h-170.666667c-46.933333 0-85.333333-38.4-85.333333-85.333333v-170.666667c0-46.933333 38.4-85.333333 85.333333-85.333333h170.666667c46.933333 0 85.333333 38.4 85.333333 85.333333v170.666667c0 46.933333-38.4 85.333333-85.333333 85.333333z m-170.666667-256v170.666667h170.666667v-170.666667h-170.666667z" p-id="2703"></path></svg>