<!-- Licensed to the Apache Software Foundation (ASF) under one or more
contributor license agreements.  See the NOTICE file distributed with
this work for additional information regarding copyright ownership.
The ASF licenses this file to You under the Apache License, Version 2.0
(the "License"); you may not use this file except in compliance with
the License.  You may obtain a copy of the License at

     http://www.apache.org/licenses/LICENSE-2.0

Unless required by applicable law or agreed to in writing, software
distributed under the License is distributed on an "AS IS" BASIS,
WITHOUT WARRANTIES OR CONDITIONS OF ANY KIND, either express or implied.
See the License for the specific language governing permissions and
limitations under the License. -->
<svg t="1664266918236" class="icon" viewBox="0 0 1024 1024" version="1.1" xmlns="http://www.w3.org/2000/svg" p-id="5378" width="48" height="48"><path d="M571.178667 643.328a144 144 0 0 1-189.098667-193.450667l77.781333 77.866667a48 48 0 1 0 67.882667-67.84l-77.824-77.909333a144 144 0 0 1 193.450667 189.141333l226.517333 207.061333a64.896 64.896 0 1 1-91.690667 91.690667l-207.018666-226.56z m51.498666 134.656a288.298667 288.298667 0 0 1-38.656 12.928v95.488c0 5.290667-4.309333 9.6-9.642666 9.6h-124.757334a9.6 9.6 0 0 1-9.6-9.6v-95.488a286.293333 286.293333 0 0 1-74.325333-30.805333l-67.541333 67.541333a9.6 9.6 0 0 1-13.568 0L196.352 739.413333a9.6 9.6 0 0 1 0-13.568l67.541333-67.541333a286.293333 286.293333 0 0 1-30.805333-74.325333H137.6A9.6 9.6 0 0 1 128 574.378667v-124.757334c0-5.290667 4.309333-9.6 9.6-9.6h95.488c6.826667-26.453333 17.28-51.370667 30.805333-74.325333L196.352 298.154667a9.6 9.6 0 0 1 0-13.568L284.586667 196.352a9.6 9.6 0 0 1 13.568 0l67.541333 67.498667a287.146667 287.146667 0 0 1 74.325333-30.848V137.6c0-5.290667 4.266667-9.6 9.6-9.6h124.8c5.248 0 9.6 4.309333 9.6 9.6v95.488c26.368 6.826667 51.328 17.28 74.282667 30.805333l67.541333-67.541333a9.6 9.6 0 0 1 13.568 0l88.234667 88.234667a9.6 9.6 0 0 1 0 13.568l-67.498667 67.541333a287.146667 287.146667 0 0 1 30.848 74.282667h95.402667c5.290667 0 9.6 4.352 9.6 9.642666v124.757334c0 5.333333-4.266667 9.6-9.6 9.6h-95.488c-4.693333 18.133333-11.178667 35.754667-19.328 52.650666a9.6 9.6 0 0 1-15.018667 2.986667l-10.112-9.173333-38.314666-34.261334-12.16-10.88a9.6 9.6 0 0 1-2.688-10.24A192.298667 192.298667 0 0 0 512 320a192 192 0 1 0 63.018667 373.333333 9.6 9.6 0 0 1 10.24 2.645334l10.837333 12.074666 35.285333 39.338667 8.149334 9.130667a9.6 9.6 0 0 1-2.901334 15.061333 283.306667 283.306667 0 0 1-13.952 6.4z" p-id="5379"></path></svg>