<!-- Licensed to the Apache Software Foundation (ASF) under one or more
contributor license agreements.  See the NOTICE file distributed with
this work for additional information regarding copyright ownership.
The ASF licenses this file to You under the Apache License, Version 2.0
(the "License"); you may not use this file except in compliance with
the License.  You may obtain a copy of the License at

     http://www.apache.org/licenses/LICENSE-2.0

Unless required by applicable law or agreed to in writing, software
distributed under the License is distributed on an "AS IS" BASIS,
WITHOUT WARRANTIES OR CONDITIONS OF ANY KIND, either express or implied.
See the License for the specific language governing permissions and
limitations under the License. -->
<?xml version="1.0" encoding="UTF-8"?>
<svg width="3450px" height="1823px" viewBox="0 0 3450 1823" version="1.1" xmlns="http://www.w3.org/2000/svg" xmlns:xlink="http://www.w3.org/1999/xlink">
    <!-- Generator: Sketch 51.3 (57544) - http://www.bohemiancoding.com/sketch -->
    <title>Group</title>
    <desc>Created with Sketch.</desc>
    <defs></defs>
    <g id="Page-1" stroke="none" stroke-width="1" fill="none" fill-rule="evenodd">
        <g id="Group" transform="translate(0.000000, -29.000000)">
            <path d="M1050.01772,1394.31899 C1050.01772,1615.24051 912.21519,1851.47342 474.746835,1851.47342 C310.696203,1851.47342 192.579747,1836.16203 87.5873418,1812.10127 C65.7139241,1807.72658 46.0278481,1792.41519 46.0278481,1768.35443 L46.0278481,1610.86582 C46.0278481,1586.80506 65.7139241,1569.30633 87.5873418,1569.30633 L91.9620253,1569.30633 C179.455696,1580.24304 398.189873,1591.17975 479.121519,1591.17975 C673.794937,1591.17975 732.853165,1521.18481 732.853165,1394.31899 C732.853165,1309.01266 691.293671,1265.26582 546.929114,1179.95949 L258.2,1007.15949 C54.7772152,886.855696 0.0936708861,759.989873 0.0936708861,606.875949 C0.0936708861,366.268354 140.083544,191.281013 546.929114,191.281013 C691.293671,191.281013 892.529114,213.15443 966.898734,230.653165 C988.772152,235.027848 1006.27089,250.339241 1006.27089,272.212658 L1006.27089,434.075949 C1006.27089,455.949367 990.959494,473.448101 969.086076,473.448101 L964.711392,473.448101 C820.346835,460.324051 675.982278,451.574684 533.805063,451.574684 C371.941772,451.574684 304.134177,508.44557 304.134177,606.875949 C304.134177,679.058228 341.318987,722.805063 483.496203,801.549367 L745.977215,948.101266 C986.58481,1081.52911 1050.01772,1221.51899 1050.01772,1394.31899 Z M2852.63038,644.060759 C2852.63038,646.248101 2852.63038,648.435443 2852.63038,650.622785 L2653.58228,1656.8 C2627.33418,1788.04051 2592.33671,1840.53671 2458.90886,1840.53671 L2399.85063,1840.53671 C2281.73418,1840.53671 2220.48861,1783.66582 2192.05316,1669.92405 L2019.25316,1000.59747 C2017.06582,991.848101 2017.06582,989.660759 2012.69114,989.660759 C2008.31646,989.660759 2008.31646,991.848101 2006.12911,1000.59747 L1833.32911,1669.92405 C1804.89367,1783.66582 1743.6481,1840.53671 1625.53165,1840.53671 L1566.47342,1840.53671 C1433.04557,1840.53671 1398.0481,1788.04051 1371.8,1656.8 L1172.7519,650.622785 C1172.7519,648.435443 1172.7519,646.248101 1172.7519,644.060759 C1172.7519,620 1192.43797,600.313924 1216.49873,600.313924 L1428.67089,600.313924 C1450.5443,600.313924 1465.8557,620 1468.04304,639.686076 L1605.84557,1564.93165 C1608.03291,1584.61772 1612.40759,1595.55443 1616.78228,1595.55443 C1621.15696,1595.55443 1627.71899,1586.80506 1632.09367,1564.93165 L1813.64304,829.98481 C1835.51646,744.678481 1861.76456,735.929114 1936.13418,735.929114 L2089.2481,735.929114 C2163.61772,735.929114 2189.86582,744.678481 2211.73924,829.98481 L2393.28861,1564.93165 C2397.66329,1586.80506 2404.22532,1595.55443 2408.6,1595.55443 C2412.97468,1595.55443 2417.34937,1584.61772 2419.53671,1564.93165 L2557.33924,639.686076 C2559.52658,620 2574.83797,600.313924 2596.71139,600.313924 L2808.88354,600.313924 C2832.9443,600.313924 2852.63038,620 2852.63038,644.060759 Z" id="Sw" fill="#1368B3"></path>
            <g id="moon-o" transform="translate(2932.164557, 596.000000) rotate(-183.000000) translate(-2932.164557, -596.000000) translate(2415.708861, 26.379747)" fill="#D8D8D8" fill-rule="nonzero">
                <path d="M1025.31646,927.371333 C992.796119,932.841177 959.292071,935.576099 925.845888,935.576099 C590.40035,935.576099 318.259524,661.909325 318.259524,324.582876 C318.259524,209.134252 351.705707,96.3623597 412.290747,0 C171.802278,71.8062511 0,293.684076 0,557.342199 C0,878.317305 259.46831,1139.24051 578.65368,1139.24051 C753.17563,1139.24051 916.818891,1059.22949 1025.31646,927.371333 Z" id="Shape"></path>
            </g>
        </g>
    </g>
</svg>