<!-- Licensed to the Apache Software Foundation (ASF) under one or more
contributor license agreements.  See the NOTICE file distributed with
this work for additional information regarding copyright ownership.
The ASF licenses this file to You under the Apache License, Version 2.0
(the "License"); you may not use this file except in compliance with
the License.  You may obtain a copy of the License at

     http://www.apache.org/licenses/LICENSE-2.0

Unless required by applicable law or agreed to in writing, software
distributed under the License is distributed on an "AS IS" BASIS,
WITHOUT WARRANTIES OR CONDITIONS OF ANY KIND, either express or implied.
See the License for the specific language governing permissions and
limitations under the License. -->
<svg t="1660294515307" class="icon" viewBox="0 0 1024 1024" version="1.1" xmlns="http://www.w3.org/2000/svg" p-id="1020" width="48" height="48"><path d="M240 512h64c9.6 0 16-6.4 16-16v-32c0-9.6-6.4-16-16-16h-64c-9.6 0-16 6.4-16 16v32c0 9.6 6.4 16 16 16z m160 0h384c9.6 0 16-6.4 16-16v-32c0-9.6-6.4-16-16-16H400c-9.6 0-16 6.4-16 16v32c0 9.6 6.4 16 16 16z m384 256h-64c-9.6 0-16 6.4-16 16v32c0 9.6 6.4 16 16 16h64c9.6 0 16-6.4 16-16v-32c0-9.6-6.4-16-16-16z" p-id="1021"></path><path d="M896 128H768V96c0-16-12.8-32-32-32s-32 12.8-32 32v32H320V96c0-16-12.8-32-32-32s-32 12.8-32 32v32H128c-35.2 0-64 28.8-64 64v704c0 35.2 28.8 64 64 64h768c35.2 0 64-28.8 64-64V192c0-35.2-28.8-64-64-64z m0 736c0 19.2-12.8 32-32 32H160c-19.2 0-32-12.8-32-32V384h768v480z m0-544H128v-96c0-19.2 12.8-32 32-32h96v32c0 16 12.8 32 32 32s32-12.8 32-32v-32h384v32c0 16 12.8 32 32 32s32-12.8 32-32v-32h96c19.2 0 32 12.8 32 32v96z" p-id="1022"></path><path d="M240 832h384c9.6 0 16-6.4 16-16v-32c0-9.6-6.4-16-16-16H240c-9.6 0-16 6.4-16 16v32c0 9.6 6.4 16 16 16z m0-160h544c9.6 0 16-6.4 16-16v-32c0-9.6-6.4-16-16-16H240c-9.6 0-16 6.4-16 16v32c0 9.6 6.4 16 16 16z" p-id="1023"></path></svg>