<!-- Licensed to the Apache Software Foundation (ASF) under one or more
contributor license agreements.  See the NOTICE file distributed with
this work for additional information regarding copyright ownership.
The ASF licenses this file to You under the Apache License, Version 2.0
(the "License"); you may not use this file except in compliance with
the License.  You may obtain a copy of the License at

     http://www.apache.org/licenses/LICENSE-2.0

Unless required by applicable law or agreed to in writing, software
distributed under the License is distributed on an "AS IS" BASIS,
WITHOUT WARRANTIES OR CONDITIONS OF ANY KIND, either express or implied.
See the License for the specific language governing permissions and
limitations under the License. -->
<svg t="1648440420715" class="icon" viewBox="0 0 1024 1024" version="1.1" xmlns="http://www.w3.org/2000/svg" p-id="3665" width="32" height="32"><path d="M914.894958 0 109.105042 0c-21.501383 0-38.907264 14.078286-38.907264 31.740136L70.197778 990.855388c0 25.340915 34.811763 40.443077 60.664616 26.108822l350.677314-194.280351c13.054411-7.167128 29.948355-7.423096 43.002765-0.255969l368.851102 196.328102c25.852853 13.822317 60.152678-1.279844 60.152678-26.62076L953.546253 31.740136C953.802222 14.334255 936.39634 0 914.894958 0zM562.681831 746.661113l-101.363662 0-196.328102-547.773322 90.61297 0 155.885025 454.344695 2.30372 0 155.117118-454.344695 90.61297 0L562.681831 746.661113z" p-id="3666" fill="#e6e6e6"></path></svg>