<!-- Licensed to the Apache Software Foundation (ASF) under one or more
contributor license agreements.  See the NOTICE file distributed with
this work for additional information regarding copyright ownership.
The ASF licenses this file to You under the Apache License, Version 2.0
(the "License"); you may not use this file except in compliance with
the License.  You may obtain a copy of the License at

     http://www.apache.org/licenses/LICENSE-2.0

Unless required by applicable law or agreed to in writing, software
distributed under the License is distributed on an "AS IS" BASIS,
WITHOUT WARRANTIES OR CONDITIONS OF ANY KIND, either express or implied.
See the License for the specific language governing permissions and
limitations under the License. -->
<svg t="1712402256302" class="icon" viewBox="0 0 1024 1024" version="1.1" xmlns="http://www.w3.org/2000/svg" p-id="1578">
  <path d="M640 885.589333a39.424 39.424 0 0 1-32.938667 46.634667A483.413333 483.413333 0 0 1 512 938.666667a295.68 295.68 0 0 1-92.117333-16.768 32.085333 32.085333 0 1 1 13.568-62.72 415.658667 415.658667 0 0 0 78.549333 15.36 295.722667 295.722667 0 0 0 75.434667-4.266667c20.181333-9.514667 47.317333-9.216 52.565333 15.36z m-397.824-307.968a160.597333 160.597333 0 0 1 156.842667 164.096 198.314667 198.314667 0 0 1-6.954667 48.426667 154.325333 154.325333 0 0 1-149.930667 115.712 164.266667 164.266667 0 0 1 0-328.192z m539.605333 0a164.266667 164.266667 0 1 1-156.842666 164.096 160.597333 160.597333 0 0 1 156.885333-164.096z m-30.122666-262.058666A344.917333 344.917333 0 0 1 853.333333 497.024c1.109333 16.768-1.749333 38.826667-30.08 41.258667a32.554667 32.554667 0 0 1-33.493333-26.325334 334.848 334.848 0 0 0-80.341333-146.304 34.517333 34.517333 0 0 1-4.992-54.613333 33.408 33.408 0 0 1 47.232 4.693333z m-417.706667-4.48c13.269333 16.64 4.821333 28.501333-8.789333 48.512A422.4 422.4 0 0 0 256 517.802667a33.152 33.152 0 0 1-36.821333 26.709333 31.573333 31.573333 0 0 1-27.52-32.512 89.6 89.6 0 0 1 3.797333-29.226667 402.773333 402.773333 0 0 1 93.312-177.536 30.592 30.592 0 0 1 45.184 5.845334zM512 85.333333a164.266667 164.266667 0 1 1-156.842667 164.096A160.597333 160.597333 0 0 1 512 85.333333z" p-id="1579"></path>
</svg>
